# Alias OBJ Model File
# Exported from SketchUp, (c) 2000-2012 Trimble Navigation Limited
# File units = meters

mtllib leaf.mtl

g Mesh1 Model

usemtl FrontColor
v 0.754291 0.67 -3.26539
vt 91.5753 91.6772
vn 0.310139 0.797635 0.517294
v 0.586475 1.02718 -3.71553
vt 95.0215 114.992
v 0.428101 1.28 -4.01041
vt 95.6434 131.495
f 1/1/1 2/2/1 3/3/1

vt 29.6965 116.181
vn -0.111795 0.669994 0.733901
vt 16.8544 154.09
vn 4.39212e-015 0.773733 0.633512
v -0.49577 1.28 -4.01041
vt -19.5185 154.09
vn -0.141778 0.635954 0.758591
f 1/4/2 3/5/3 4/6/4

vt 137.875 50.3937
vn 0.916047 -2.98204e-014 -0.401072
v 0.754291 0.706618 -3.26539
vt 105.855 27.8196
vt 105.855 26.378
f 3/7/5 5/8/5 1/9/5

v 0.428101 1.31662 -4.01041
vt 137.875 51.8353
f 5/8/5 3/7/5 6/10/5

v -0.0257371 2.07 -4.68458
vt 153.561 81.4961
vn 0.829549 0 -0.558434
vt 121.565 51.8353
vt 121.565 50.3937
f 7/11/6 6/12/6 3/13/6

v -0.0257371 2.10662 -4.68458
vt 153.561 82.9377
f 6/12/6 7/11/6 8/14/6

v -0.49577 1.31662 -4.01041
vt 118.356 51.8353
vn 0.820309 0 0.57192
vt 150.712 81.4961
vt 150.712 82.9377
f 9/15/7 7/16/7 8/17/7

vt 118.356 50.3937
f 7/16/7 9/15/7 4/18/7

v -0.814143 0.706618 -3.26539
vt 105.621 27.8196
vn 0.919556 -1.49673e-014 0.39296
vt 137.519 50.3937
vt 137.519 51.8353
f 10/19/8 4/20/8 9/21/8

v -0.814143 0.67 -3.26539
vt 105.621 26.378
f 4/20/8 10/19/8 11/22/8

v -0.966943 0.376618 -2.56564
vt 90.5627 14.8275
vn 0.976979 -9.01309e-015 0.213338
vt 118.761 26.378
vt 118.761 27.8196
f 12/23/9 11/24/9 10/25/9

v -0.966943 0.34 -2.56564
vt 90.5627 13.3858
f 11/24/9 12/23/9 13/26/9

v -0.992993 0.196618 -1.72142
vt 66.5344 7.74086
vn 0.999524 2.03586e-005 0.0308466
vt 99.7874 13.3858
vn 0.443558 0.873654 0.199962
vt 99.7874 14.8275
f 14/27/10 13/28/11 12/29/10

v -0.992993 0.16 -1.72142
vt 66.5344 6.29921
f 13/28/11 14/27/10 15/30/11

vt 74.4318 7.74086
vn 0.978042 -1.20247e-014 -0.20841
v -0.769277 0.03 -0.671545
vt 32.1702 1.1811
vt 74.4318 6.29921
f 14/31/12 16/32/12 15/33/12

vn 0.978042 0 -0.20841
v -0.769277 0.0666179 -0.671545
vt 32.1702 2.62275
f 14/31/13 17/34/13 16/32/13

v -0.947284 0.148509 -1.32499
vt -25.6048 59.0683
vn 0.0250549 0.992746 0.117587
vt -24.1118 32.2519
vt -24.1124 74.8223
f 18/35/14 17/36/14 14/37/14

v -0.839484 0.0914186 -0.865969
vt -25.22 40.3732
f 17/36/14 18/35/14 19/38/14

v 0.958697 0.196618 -1.72142
vt -38.0699 68.0285
vn 0.168873 -0.972814 0.158476
vt 32.886 34.4345
vn -0.00122011 -0.992209 -0.124582
vt 37.043 52.6655
vn -0.00029687 -0.992545 -0.121879
f 20/39/15 19/40/16 18/41/17

vt -38.7339 67.6513
vt 29.8954 26.9965
vn 0.387491 -0.742958 0.545769
vt 32.5469 34.7524
f 20/42/15 17/43/18 19/44/16

vt -12.1553 2.62275
v 0.958697 0.16 -1.72142
vt 67.4476 6.29921
vn 0.100298 0.953973 0.282624
vt 67.4476 7.74086
f 17/45/18 21/46/19 20/47/15

vt -12.1553 1.1811
vn 0.159773 0.912746 0.375989
f 21/46/19 17/45/18 16/48/20

vt 36.4777 2.62275
vn 0.913401 3.43092e-015 -0.407061
v -0.47 0 -0
vt 7.53223 5.79878e-014
vt 36.4777 1.1811
f 17/49/21 22/50/21 16/51/21

vn 0.913401 1.71546e-015 -0.407061
v -0.47 0.0366179 -0
vt 7.53223 1.44165
vt 7.53223 2.89939e-014
f 17/49/22 23/52/22 22/53/22

vt 16.9015 7.58474
vn -0.0165961 -0.999169 -0.0372398
v -0.67959 0.0558411 -0.422367
vt 17.6697 26.1477
vt 16.9015 36.5543
f 23/54/23 24/55/23 17/56/23

v 0.782376 0.0666179 -0.671545
vt -30.8022 26.5274
vn 2.33393e-016 -0.999066 -0.0432088
vt 26.7555 16.7081
vt 30.2865 26.5274
f 25/57/24 24/58/24 17/59/24

vt -37.744 68.21
vt -30.8022 26.5607
vn 2.71812e-016 -0.992421 -0.122886
vt 30.2865 26.5607
f 20/60/15 25/61/25 17/62/18

vt 31.1753 2.62275
vn 0.986189 0 0.165626
vt 73.0877 6.29921
vt 73.0877 7.74086
f 25/63/26 21/64/26 20/65/26

v 0.782376 0.03 -0.671545
vt 31.1753 1.1811
f 21/64/26 25/63/26 26/66/26

vt -16.3074 1.44165
vn 0.214743 -0.907934 0.359918
vt 39.6399 1.1811
vn 0.208089 0.879802 0.427373
vt 39.6399 2.62275
f 23/67/27 26/68/28 25/69/27

vt -16.3074 -2.21946e-014
f 26/68/28 23/67/27 22/70/28

vt 18.5039 1.44165
vn 0 0 -1
v 0.53 0 -0
vt -20.8661 0
vt 18.5039 0
f 23/71/29 27/72/29 22/73/29

v 0.53 0.0366179 -0
vt -20.8661 1.44165
f 27/72/29 23/71/29 28/74/29

vt -30.8022 26.5295
vt -20.8661 0.0643388
vn 0 -0.999004 -0.0446286
vt 18.5039 0.0643388
f 25/75/27 28/76/30 23/77/27

vt 7.34052 1.44165
vn 0.936079 -4.68814e-015 0.351791
vt 35.5847 1.1811
vt 35.5847 2.62275
f 28/78/31 26/79/31 25/80/31

vt 7.34052 9.15704e-014
f 26/79/31 28/78/31 27/81/31

vt 30.8022 26.4652
vt -18.5039 -2.08411e-015
vt 20.8661 2.35017e-015
vn -5.03156e-018 0.999004 0.0446286
f 26/82/28 22/83/28 27/84/32

vt -30.2865 26.4652
vn -2.36152e-016 0.999004 0.0446286
vt -18.5039 -9.78162e-014
f 26/82/28 16/85/33 22/86/28

vt 37.744 68.0328
vt -30.2865 26.3835
vt 30.8022 26.3835
vn -2.85403e-016 0.992421 0.122886
f 21/87/19 16/88/20 26/89/34

vt 38.7339 67.4698
v -0.839484 0.0548007 -0.865969
vt -32.5469 34.5709
vn 0.00122011 0.992209 0.124582
vt -29.8954 26.815
f 21/90/19 29/91/35 16/92/20

vt 38.0699 67.8508
v -0.947284 0.111891 -1.32499
vt -37.043 52.4878
vn 0.00029687 0.992545 0.121879
vt -32.886 34.2567
f 21/93/19 30/94/36 29/95/35

vt 37.744 68.0377
vt -39.0942 68.0377
vn -5.46176e-016 0.992717 0.120473
vt -37.2947 52.3158
f 21/96/19 15/97/37 30/98/36

vt 37.744 67.5961
vn -4.45368e-016 0.978017 0.208526
vt -38.0686 101.58
vt -39.0942 67.5961
f 21/99/38 13/100/11 15/101/11

v 0.912476 0.34 -2.56564
vt 35.9243 101.58
f 13/100/11 21/99/38 31/102/38

vt 98.8946 13.3858
vn 0.998505 -4.7464e-015 -0.0546673
vt 65.6077 7.74086
vt 65.6077 6.29921
f 31/103/39 20/104/39 21/105/39

v 0.912476 0.376618 -2.56564
vt 98.8946 14.8275
f 20/104/39 31/103/39 32/106/39

vt 118.846 26.378
vn 0.975388 -1.79968e-014 -0.220498
vt 90.6022 14.8275
vt 90.6022 13.3858
f 1/107/40 32/108/40 31/109/40

vt 118.846 27.8196
f 32/108/40 1/107/40 5/110/40

vt 29.6965 27.8196
vn 1.3348e-014 -6.79291e-029 1
vt -32.0529 26.378
vt 29.6965 26.378
f 5/111/41 11/112/41 1/113/41

vt -32.0529 27.8196
f 11/112/41 5/111/41 10/114/41

vt -35.9243 97.6843
vn -0.143226 -0.981873 -0.12414
vt 32.0529 128.143
vn -0.346148 -0.811005 0.471648
vt -29.6965 128.143
vn -7.53173e-015 -0.904466 -0.426546
f 32/115/42 10/116/43 5/117/44

vt 35.9243 97.6843
vt -32.0529 128.143
vt -38.0686 97.6843
vn -3.23087e-016 0.904466 0.426546
f 32/118/42 10/119/43 12/120/45

vt -77.9922 26.378
vn -0.102277 0.778353 0.61944
vt -4.64483 14.8275
vt -77.9922 27.8196
f 11/121/46 32/122/42 10/123/43

vt -4.64483 13.3858
vn -0.0649089 0.827477 0.557735
f 32/122/42 11/121/46 31/124/47

vt 40.2749 96.6451
vt -26.4423 129.773
v -0.840781 0.638666 -3.19067
vt -27.6178 126.627
vn 0.0103164 0.913181 0.407423
f 31/125/47 11/126/46 33/127/48

vt 35.9243 97.0694
vt 29.6965 127.528
vn 7.53173e-015 0.904466 0.426546
vt -32.0529 127.528
f 31/128/47 1/129/49 11/130/46

vt 99.5307 41.254
vn 0.370338 0.869658 0.326411
v 0.877192 0.444821 -2.80488
vt 105.678 49.6137
vt 116.08 67.5722
f 31/131/50 34/132/50 1/133/50

vt 29.6965 116.668
v -0.687029 0.968942 -3.63656
vt -27.0484 135.432
vn -0.00233263 0.774363 0.632737
vt -32.0529 116.668
vn 9.9905e-015 0.778809 0.627261
f 1/134/2 35/135/51 11/136/52

vt 28.7559 115.973
vt -20.6721 153.603
vt -28.0942 134.414
f 1/137/2 4/138/4 35/139/51

vt -32.0529 116.181
vn 1.00497e-014 0.773733 0.633512
f 1/4/2 4/6/4 11/140/53

vt -40.3069 27.8196
vn -0.516086 0.00121561 0.856536
vt -97.5995 50.3937
vt -40.3069 26.378
f 5/141/54 4/142/4 1/143/2

vt -97.5995 51.8353
vn -0.537296 -0.80871 0.239377
f 4/142/4 5/141/54 9/144/55

vt 28.7559 116.893
vt -20.6721 154.523
v -0.687029 1.00556 -3.63656
vt -28.0942 135.334
f 5/145/54 9/146/55 36/147/51

vt -29.6965 117.094
vt 19.5185 155.003
vt -16.8544 155.003
vn -4.39212e-015 -0.773733 -0.633512
f 5/148/54 9/149/55 6/150/56

vt 32.0529 117.094
vn -1.00497e-014 -0.773733 -0.633512
f 5/148/54 10/151/57 9/149/55

vt 29.6965 117.573
vt -27.0484 136.336
vt -32.0529 117.573
vn 9.98006e-015 0.778809 0.627261
f 5/152/54 36/153/51 10/154/58

vt -51.4844 150.964
vn -0.124896 0.793171 0.596054
vt -55.8357 130.855
vt -57.7369 111.53
f 9/155/59 36/156/59 10/157/59

v -0.474365 1.36799 -4.06057
vt -18.6758 150.223
vn -0.00196735 0.680742 0.73252
vt -19.5185 147.396
vn 5.66056e-015 0.698647 0.715466
vt 16.8544 147.396
vn -0.0148329 0.665879 0.745912
f 37/158/60 9/159/61 6/160/62

vt -105.606 166.487
vn -0.393679 0.720935 0.570324
vt -106.185 124.525
vt -105.757 121.606
f 8/161/63 37/162/63 9/163/63

v -0.0496066 2.07209 -4.65741
vt -105.771 164.525
f 37/162/63 8/161/63 38/164/63

v -0.223178 1.82102 -4.45985
vt -17.9871 166.438
vn -0.0222394 0.648935 0.760518
vt -10.6887 180.994
vn -0.0405309 0.635033 0.771421
vt -11.571 179.234
f 39/165/64 8/166/65 38/167/65

vt 8.54693 140.731
f 8/166/65 39/165/64 6/168/62

vt -9.70838 169.986
vt -19.5149 146.178
vt 16.0251 143.478
f 39/169/64 37/170/60 6/171/62

vt -106.977 150.262
f 37/162/63 38/164/63 39/172/63

v 0.103938 1.92052 -4.54112
vt -103.385 157.333
vn -0.38984 -0.717048 -0.577812
vt -102.278 123.223
vt -102.312 167.845
f 40/173/66 6/174/66 8/175/66

v 0.367723 1.455 -4.1414
vt -103.192 131.039
f 6/174/66 40/173/66 41/176/66

vt -1.01327 182.81
vn 6.37903e-015 0.64914 0.760669
vt -19.5185 141.922
vt 16.8544 141.922
f 8/177/67 9/178/67 6/179/67

vt -19.5185 51.8353
vn 1.1721e-014 -3.43146e-029 1
vt 16.8544 50.3937
vt 16.8544 51.8353
f 9/180/68 3/181/68 6/182/68

vt -19.5185 50.3937
f 3/181/68 9/180/68 4/183/68

v -0.474365 1.33138 -4.06057
vt -18.6758 149.191
vt -19.5185 146.364
vn 5.51968e-015 0.698647 0.715466
vt 16.8544 146.364
f 42/184/60 4/185/69 3/186/62

vt 106.185 123.526
vn 0.393679 -0.720935 -0.570324
vt 105.606 165.488
vt 105.757 120.607
f 42/187/70 7/188/70 4/189/70

v -0.223178 1.7844 -4.45985
vt 106.977 149.263
f 7/188/70 42/187/70 43/190/70

vt -9.70838 168.906
vt -19.5149 145.098
vt 16.0251 142.398
f 43/191/64 42/192/60 3/193/62

vt -10.6887 179.88
vt -17.9871 165.324
vt 8.54693 139.617
f 7/194/65 43/195/64 3/196/62

v 0.103938 1.8839 -4.54112
vt -103.385 156.328
vt -102.278 122.218
vt -102.312 166.84
f 44/197/66 3/198/66 7/199/66

v 0.367723 1.41839 -4.1414
vt -103.192 130.035
f 3/198/66 44/197/66 45/200/66

vt 1.01327 181.714
vn -6.24442e-015 -0.64914 -0.760669
vt -16.8544 140.826
vt 19.5185 140.826
f 7/201/71 3/202/71 4/203/71

vt -51.4844 150.087
vt -55.8357 129.977
vt -57.7369 110.652
f 4/204/59 35/205/59 11/206/59

vt -38.0686 97.0694
vn -3.42092e-016 0.904466 0.426546
f 31/128/47 11/130/46 13/207/72

vt 46.0104 117.87
vn 0.314164 0.830369 0.460204
v -0.948424 0.424241 -2.73028
vt 29.7663 100.506
vt 25.5095 94.5542
f 11/208/73 46/209/73 13/210/73

vt 43.4856 115.657
f 46/209/73 11/208/73 33/211/73

vt 36.7842 96.912
vt -32.0294 124.716
vt -36.4217 104.754
vn 0.00180321 0.898353 0.439271
f 31/212/47 33/213/48 46/214/74

vt 35.9243 96.0196
vt -37.3395 103.301
vt -38.0686 96.0196
vn -3.48457e-016 0.890236 0.4555
f 31/215/47 46/216/74 13/217/75

vt 35.9243 13.3858
vn -5.76171e-016 5.92343e-030 1
vt -38.0686 14.8275
vt -38.0686 13.3858
f 31/218/76 12/219/76 13/220/76

vt 35.9243 14.8275
f 12/219/76 31/218/76 32/221/76

vt -37.744 67.8967
vn 4.37726e-016 -0.978017 -0.208526
vt 38.0686 101.881
vt -35.9243 101.881
f 20/222/77 12/223/10 32/224/77

vt 39.0942 67.8967
f 12/223/10 20/222/77 14/225/10

vt -37.744 68.2113
vt 37.2947 52.4895
vt 39.0942 68.2113
vn 5.48059e-016 -0.992717 -0.120473
f 20/226/15 18/227/17 14/228/78

vt 37.744 68.21
vt -39.0942 68.21
vn -5.54072e-016 0.992421 0.122886
vt -30.2865 26.5607
f 20/229/15 14/230/79 17/231/18

vt -39.0942 7.74086
vn -1.29462e-015 4.15032e-030 1
vt 37.744 6.29921
vt 37.744 7.74086
f 14/232/80 21/233/80 20/234/80

vt -39.0942 6.29921
f 21/233/80 14/232/80 15/235/80

vt -39.0942 68.0328
f 21/87/19 15/236/79 16/88/20

vt -25.6048 58.895
vt -24.1118 32.0786
vt -24.1124 74.6489
f 30/237/14 16/238/14 15/239/14

vt -25.22 40.1999
f 16/238/14 30/237/14 29/240/14

vt -41.1659 100.686
v -1.00158 0.2119 -1.79343
vt -41.5913 69.5731
vn -0.0064285 0.978037 0.208332
vt -41.1659 66.6865
f 12/241/10 47/242/81 14/243/10

v -1.00212 0.312335 -2.26495
vt -42.1851 88.544
f 47/242/81 12/241/10 48/244/81

vt -35.9243 96.6762
vt 38.0686 96.6762
vn 3.53737e-016 -0.890236 -0.4555
v -0.948424 0.460859 -2.73028
vt 37.3395 103.957
vn -0.00180321 -0.898353 -0.439271
f 32/245/42 12/246/82 49/247/83

vt -29.7663 101.31
vn -0.314164 -0.830369 -0.460204
vt -46.0104 118.674
vt -25.5095 95.3575
f 49/248/84 10/249/84 12/250/84

v -0.840781 0.675284 -3.19067
vt -43.4856 116.46
f 10/249/84 49/248/84 50/251/84

vt -36.7842 97.5217
vt 36.4217 105.364
vt 32.0294 125.325
vn -0.0103164 -0.913181 -0.407423
f 32/252/42 49/253/83 50/254/85

vt -40.2749 97.2105
vt 27.6178 127.193
vt 26.4423 130.338
f 32/255/42 50/256/85 10/257/43

vt -41.1659 100.386
v -1.00158 0.175282 -1.79343
vt -41.5913 69.2726
vt -41.1659 66.386
f 13/258/11 51/259/81 15/260/11

v -1.00212 0.275717 -2.26495
vt -42.1851 88.2435
f 51/259/81 13/258/11 52/261/81

vt 30.8022 26.4651
vn -2.36714e-016 0.999066 0.0432088
vt -30.2865 26.4651
v -0.67959 0.0192232 -0.422367
vt -26.7555 16.6458
f 26/262/86 16/263/86 53/264/86

vt 30.8022 1.1811
vn -6.9788e-016 1.96151e-030 1
vt -30.2865 2.62275
vt -30.2865 1.1811
f 26/265/87 17/266/87 16/267/87

vt 30.8022 2.62275
f 17/266/87 26/265/87 25/268/87

vt 30.2865 26.5295
vn 2.34063e-016 -0.999004 -0.0446286
f 25/75/27 23/77/27 17/269/88

vt 16.9015 7.52596
vt 17.6697 26.0889
vt 16.9015 36.4955
f 22/270/23 53/271/23 16/272/23

